<?xml version="1.0" standalone="no"?>
<!DOCTYPE svg PUBLIC "-//W3C//DTD SVG 20010904//EN"
 "http://www.w3.org/TR/2001/REC-SVG-20010904/DTD/svg10.dtd">
<svg version="1.0" xmlns="http://www.w3.org/2000/svg"
 width="600.000000pt" height="600.000000pt" viewBox="0 0 600.000000 600.000000"
 preserveAspectRatio="xMidYMid meet">

<g transform="translate(0.000000,600.000000) scale(0.100000,-0.100000)"
fill="#000000" stroke="none">
<path d="M1574 5931 c-219 -190 -458 -510 -640 -856 -96 -183 -225 -519 -210
-544 4 -6 -5 -50 -19 -98 -36 -127 -71 -307 -91 -468 -33 -280 -17 -726 29
-772 24 -24 34 4 57 147 21 129 49 271 71 353 9 36 13 38 37 32 40 -10 49 -21
56 -68 13 -82 106 -353 156 -456 66 -135 134 -238 249 -378 91 -112 212 -238
247 -259 17 -10 14 -15 -29 -65 -66 -76 -80 -109 -75 -183 5 -72 40 -156 99
-234 23 -29 39 -54 37 -56 -48 -29 -100 -85 -124 -133 -16 -32 -29 -59 -29
-60 0 -1 -56 -13 -123 -26 -221 -45 -385 -145 -497 -301 -24 -34 -78 -131
-120 -216 -69 -140 -76 -160 -72 -201 2 -26 13 -60 25 -77 l22 -30 -50 -103
c-90 -191 -180 -423 -168 -437 6 -7 14 -9 18 -5 4 4 39 87 79 183 100 240 179
404 202 418 26 17 60 -2 120 -65 101 -106 186 -236 280 -430 33 -68 63 -123
67 -123 4 0 14 5 22 10 13 8 2 35 -64 167 -100 202 -171 310 -261 400 -59 60
-79 73 -114 79 -35 6 -39 9 -29 21 28 34 151 -12 294 -108 44 -29 150 -104
237 -166 142 -103 172 -133 133 -133 -21 0 -56 -45 -56 -73 0 -43 21 -131 36
-148 8 -8 14 -29 14 -45 1 -39 43 -160 55 -156 15 4 11 27 -28 154 -20 64 -39
139 -43 166 -6 49 -5 51 24 66 17 9 41 16 53 16 12 0 114 -62 228 -139 244
-163 405 -265 559 -351 l112 -62 0 -59 c0 -46 3 -59 15 -59 12 0 15 17 15 93
0 119 13 169 43 165 19 -3 23 -11 28 -63 4 -33 7 -90 8 -128 l1 -67 363 2 362
3 72 140 c39 77 100 208 134 292 34 83 81 187 106 230 79 141 150 296 192 418
47 141 111 369 111 400 0 12 7 30 15 41 15 18 16 18 39 -10 17 -20 29 -53 36
-98 12 -72 9 -250 -5 -282 -7 -16 -6 -17 13 -7 12 6 69 82 126 169 147 220
176 243 176 138 0 -89 -34 -195 -105 -327 -64 -119 -276 -450 -318 -496 -11
-13 -15 -23 -9 -23 16 0 594 278 692 334 46 26 93 46 104 44 55 -8 9 -139 -72
-206 -86 -72 -236 -169 -385 -251 -159 -87 -221 -126 -251 -160 -15 -17 -27
-20 -55 -16 -32 5 -33 4 -12 -5 64 -28 330 -17 596 25 82 13 91 13 108 -2 23
-22 15 -58 -21 -96 -54 -58 -149 -88 -392 -127 -146 -23 -170 -32 -245 -88
l-50 -37 30 -3 c16 -2 34 2 40 10 5 7 28 27 50 44 33 25 56 33 130 42 l90 12
50 -55 c35 -39 57 -55 75 -55 22 0 19 5 -33 58 l-58 58 74 12 c41 6 107 25
148 41 l74 30 13 -36 c26 -76 122 -163 179 -163 26 0 24 3 -22 29 -56 32 -120
107 -130 152 -5 21 -1 39 14 63 12 18 21 43 21 55 0 19 12 12 75 -46 68 -62
176 -133 200 -132 6 0 -8 9 -30 21 -49 25 -76 46 -136 103 -44 42 -46 48 -64
139 -23 122 -18 356 10 426 9 25 19 59 21 75 10 62 15 75 28 75 27 0 37 -29
46 -141 19 -204 99 -487 174 -612 19 -32 37 -66 41 -76 14 -45 68 -131 82
-131 12 0 9 11 -13 48 -110 187 -165 317 -209 492 -48 191 -51 219 -29 277 27
68 24 249 -5 356 -53 198 -163 317 -374 401 l-39 16 22 29 c42 59 63 123 63
191 1 72 -16 116 -59 149 l-26 21 78 83 c86 90 144 189 144 243 0 25 -10 45
-36 74 l-37 40 46 48 c24 27 61 83 82 126 22 47 56 96 85 125 51 51 102 140
131 231 28 87 23 17 -6 -86 -46 -159 -121 -298 -218 -401 -59 -62 -48 -76 30
-37 65 31 119 77 176 149 47 59 43 38 -13 -75 -45 -88 -84 -141 -148 -194 -26
-22 -38 -36 -28 -32 11 4 39 11 63 17 102 22 291 147 360 237 90 116 179 307
224 477 56 215 73 342 74 555 0 107 -4 215 -8 239 -7 39 -6 42 7 32 25 -21
110 -160 163 -266 98 -195 165 -397 178 -533 6 -60 -12 -197 -31 -236 -3 -6 1
-3 9 7 8 10 30 61 48 115 31 90 33 106 33 222 -1 145 -20 240 -89 447 -48 145
-123 309 -215 474 -33 58 -60 110 -60 115 0 5 35 29 76 54 42 25 98 68 125 97
73 77 67 89 -40 72 -80 -12 -159 -1 -224 33 -42 21 -71 74 -179 333 -125 299
-265 549 -425 763 -99 132 -282 326 -391 413 l-73 59 -1283 0 -1283 0 -79 -69z
m870 -1395 c49 -29 87 -73 110 -127 20 -48 49 -292 43 -360 -7 -74 -19 -96
-99 -163 -38 -32 -68 -62 -68 -67 0 -19 -105 -121 -145 -142 -46 -23 -79 -25
-261 -10 -82 7 -143 17 -162 27 -29 15 -73 74 -177 233 -75 115 -8 281 142
357 116 59 162 91 182 126 26 47 92 107 140 128 91 39 226 39 295 -2z m1665
-138 c19 -59 61 -285 61 -327 0 -33 -7 -49 -33 -78 l-34 -36 -6 194 c-4 107
-10 213 -13 237 -8 51 9 58 25 10z m-834 -555 l-7 -123 -27 0 c-14 0 -35 3
-47 6 -20 5 -19 9 23 172 23 92 43 172 44 177 1 6 6 -17 11 -50 6 -34 7 -113
3 -182z m1039 155 c8 -67 8 -172 0 -221 -6 -32 -12 -40 -52 -57 -25 -11 -46
-19 -48 -18 -1 2 8 24 20 49 13 25 23 52 23 60 3 46 38 239 43 239 4 0 10 -24
14 -52z m-136 -110 l-3 -113 -55 -52 c-30 -28 -56 -51 -57 -50 -1 2 2 21 7 43
5 23 14 81 19 129 9 80 14 92 43 122 17 18 36 33 41 33 5 0 7 -51 5 -112z
m-3341 -20 c-3 -8 -6 -5 -6 6 -1 11 2 17 5 13 3 -3 4 -12 1 -19z m3809 -10
c-3 -17 -17 -55 -30 -84 l-24 -51 -68 -13 c-38 -6 -76 -14 -85 -16 -15 -4 -15
1 1 57 15 58 19 63 66 87 45 23 116 50 138 51 5 1 6 -13 2 -31z m103 -39 c-26
-93 -35 -109 -63 -109 l-23 0 18 67 c11 37 19 78 19 90 0 19 5 23 34 23 l35 0
-20 -71z m217 58 c10 -10 -25 -113 -44 -130 -25 -23 -97 -24 -88 -1 3 9 9 34
12 57 12 93 10 90 65 85 27 -3 52 -8 55 -11z m-948 -98 c37 -12 38 -22 13 -94
l-18 -50 -55 -6 c-30 -3 -63 -11 -74 -18 -15 -9 -8 -10 41 -6 109 11 118 14
150 57 17 23 45 52 62 66 l33 24 -4 -46 c-4 -51 -24 -75 -64 -76 -15 0 -26 -9
-34 -27 -6 -16 -24 -55 -40 -87 -33 -69 -37 -96 -12 -75 13 10 11 2 -6 -31
-16 -31 -24 -67 -26 -115 -2 -45 -1 -61 4 -45 6 18 9 5 9 -45 l0 -70 -81 0
c-88 0 -126 -14 -171 -62 -18 -21 -25 -24 -25 -12 0 42 -56 180 -98 243 -54
82 -76 106 -97 106 -24 0 -18 -13 28 -63 49 -52 96 -135 122 -215 16 -49 16
-55 1 -87 -18 -37 -13 -83 10 -92 9 -3 14 -21 14 -49 0 -154 -94 -335 -227
-435 -266 -201 -637 -100 -791 215 -38 78 -50 123 -58 216 -10 128 14 259 29
155 3 -26 4 -25 6 10 2 37 4 35 17 -27 8 -37 23 -88 34 -113 23 -55 18 -59 -9
-7 -11 20 -20 33 -20 27 -1 -17 55 -109 84 -137 38 -38 141 -88 181 -88 41 0
133 34 168 61 27 21 58 68 37 55 -7 -5 -9 -1 -5 8 3 9 11 13 17 9 6 -3 7 -1 3
5 -3 6 -1 32 5 57 8 32 14 42 20 33 16 -25 9 67 -10 144 -11 42 -34 104 -51
138 -37 72 -107 153 -127 146 -8 -3 -11 -2 -8 3 3 5 0 13 -7 18 -40 26 229 14
297 -13 14 -5 11 1 -10 19 -23 21 -25 26 -10 21 11 -3 0 6 -24 21 -25 14 -72
33 -105 42 -34 9 -62 18 -64 19 -2 1 8 20 22 43 14 22 36 66 49 98 l23 58 50
-4 c27 -1 50 -4 52 -6 5 -4 -15 -165 -24 -194 -6 -19 -4 -22 12 -19 11 2 21
15 25 37 8 36 82 118 156 171 l44 32 -7 -29 c-29 -131 -53 -180 -92 -189 -78
-18 -102 -26 -102 -35 0 -13 81 -2 127 16 17 8 39 27 47 43 16 32 50 150 61
215 3 20 11 37 17 37 7 0 9 -37 4 -126 l-8 -127 57 6 c78 8 206 47 228 69 10
10 22 18 28 18 14 0 36 56 44 115 4 28 10 54 13 59 5 9 69 1 120 -15z m-189
-11 c0 -13 -10 -54 -22 -92 l-22 -69 -110 -28 c-61 -15 -112 -25 -113 -24 -2
2 -1 46 3 98 l7 94 102 20 c140 28 156 29 155 1z m575 -10 c-8 -26 -22 -38
-46 -38 -27 0 -21 23 10 42 36 23 45 22 36 -4z m239 -69 c7 -1 24 -2 39 -3 15
-1 30 -5 34 -8 11 -12 -7 -48 -25 -48 -25 0 -85 65 -75 82 7 10 9 9 12 -4 2
-10 9 -19 15 -19z m-328 -9 c4 -7 12 -7 25 0 28 15 37 12 43 -11 4 -16 10 -20
24 -14 35 15 159 18 184 5 93 -49 135 -91 130 -132 -1 -9 9 -43 22 -75 42
-101 52 -159 51 -303 -2 -148 -10 -192 -57 -290 -63 -129 -185 -216 -303 -214
-162 2 -324 166 -369 374 -24 111 -30 281 -12 363 14 65 14 69 -4 75 -17 7
-17 8 3 40 l20 32 33 -20 c42 -26 64 -25 97 3 47 41 64 115 28 124 -25 7 -17
20 23 37 39 18 54 19 62 6z m-95 -82 c0 -18 -51 -68 -70 -68 -18 0 -60 35 -60
51 0 16 27 21 48 10 15 -8 23 -7 32 4 15 18 50 20 50 3z m-1270 -8 c0 -5 -5
-10 -11 -10 -5 0 -7 -4 -4 -10 6 -9 -21 -70 -31 -70 -3 0 -26 16 -51 35 -25
19 -54 35 -65 35 -20 0 -54 -48 -63 -90 -3 -14 -14 -31 -23 -37 -14 -8 -12 1
10 48 15 32 28 63 28 68 0 12 85 30 193 39 9 1 17 -2 17 -8z m120 -6 c0 -16
-43 -74 -55 -74 -7 0 -20 -3 -29 -6 -20 -8 -20 7 -2 51 13 31 19 35 50 35 20
0 36 -3 36 -6z m-443 -81 c-14 -27 -30 -65 -36 -86 -15 -44 -38 -58 -136 -80
-139 -32 -136 -32 -126 -5 14 40 265 217 309 218 8 0 5 -15 -11 -47z m300
-129 c-3 -3 -12 -4 -19 -1 -8 3 -5 6 6 6 11 1 17 -2 13 -5z m-327 -8 c0 -3 -4
-8 -10 -11 -5 -3 -10 -1 -10 4 0 6 5 11 10 11 6 0 10 -2 10 -4z m210 -31 c7
-8 26 -15 42 -15 25 0 29 -3 23 -17 -5 -10 -13 -33 -19 -50 -12 -36 -27 -41
-46 -18 -7 8 -26 15 -42 15 -28 0 -29 1 -14 22 9 12 16 35 16 50 0 31 20 37
40 13z m-308 -67 c-27 -35 -63 -84 -81 -110 -18 -27 -36 -48 -40 -48 -8 0 -31
119 -31 159 0 15 7 21 23 21 12 0 54 9 92 19 39 11 73 20 78 20 4 1 -14 -27
-41 -61z m404 -36 c-12 -11 -18 7 -10 30 l8 23 4 -23 c2 -13 1 -26 -2 -30z
m60 -11 c-13 -20 -26 -11 -26 16 0 25 1 26 16 11 9 -9 13 -21 10 -27z m-316
-14 c0 -12 -9 -30 -19 -39 -13 -11 -21 -36 -26 -78 -4 -34 -10 -73 -14 -87 -7
-25 -8 -25 -40 26 l-33 51 57 75 c31 41 61 75 66 75 5 0 9 -10 9 -23z m240
-29 c0 -7 -4 -19 -9 -27 -7 -11 -11 -10 -20 7 -15 28 -14 32 9 32 11 0 20 -6
20 -12z m103 -45 c29 -43 45 -93 29 -93 -6 0 -14 17 -18 38 -3 20 -18 49 -32
65 -14 15 -21 27 -15 27 6 0 22 -17 36 -37z m48 11 c5 -15 8 -29 5 -31 -2 -2
-8 10 -14 26 -13 38 -5 41 9 5z m903 -48 c25 -10 35 -22 39 -46 4 -18 14 -34
24 -37 11 -2 39 -48 71 -114 41 -86 64 -121 112 -168 100 -99 208 -135 317
-107 31 8 59 14 61 12 8 -8 -51 -109 -85 -147 -52 -58 -182 -165 -383 -315
-188 -141 -224 -163 -313 -189 -65 -19 -66 -18 -252 32 -71 19 -148 39 -171
44 -22 4 -111 37 -199 74 -87 36 -163 64 -169 62 -6 -2 6 -12 26 -22 20 -10
34 -23 31 -28 -3 -6 -1 -7 5 -3 7 4 39 -19 76 -53 35 -33 87 -76 115 -96 42
-31 50 -41 45 -59 -4 -11 -11 -24 -16 -27 -5 -3 -9 -9 -9 -13 5 -34 -23 -58
-57 -50 -98 22 -318 90 -418 129 -100 40 -224 100 -224 109 0 1 11 36 25 76
14 40 25 82 25 92 0 10 9 36 20 58 11 22 20 46 20 54 0 8 -26 29 -57 47 -161
89 -213 122 -217 137 -9 33 -18 112 -12 112 3 0 25 -21 48 -46 68 -74 222
-184 258 -184 14 0 20 -10 -78 121 -35 46 -79 113 -97 149 -43 86 -87 210 -74
210 25 0 128 -61 134 -80 3 -11 14 -20 23 -20 12 0 25 -23 45 -80 56 -157 186
-295 337 -356 50 -21 88 -28 165 -32 171 -8 295 41 421 166 105 104 174 275
174 431 0 54 2 60 44 104 59 61 111 78 170 53z m-1080 -32 c4 -10 1 -14 -6
-12 -15 5 -23 28 -10 28 5 0 13 -7 16 -16z m-410 -66 c25 -29 44 -54 42 -55
-11 -11 -89 33 -97 54 -26 68 -4 68 55 1z m332 -14 c10 -23 11 -33 3 -29 -12
8 -39 67 -39 87 1 16 15 -8 36 -58z m2041 44 c-3 -8 -6 -5 -6 6 -1 11 2 17 5
13 3 -3 4 -12 1 -19z m-1827 -12 c0 -14 -5 -28 -10 -31 -13 -8 -24 20 -16 40
9 24 26 17 26 -9z m-1315 -61 c59 -163 182 -349 259 -390 19 -11 38 -16 41
-13 4 3 -11 41 -33 84 -35 71 -102 257 -102 285 0 6 20 -15 43 -47 50 -67 129
-151 169 -180 21 -15 34 -39 54 -109 15 -49 29 -102 32 -117 4 -27 2 -28 -37
-28 l-41 0 0 40 c0 48 -24 55 -42 13 -7 -16 -13 -30 -15 -32 -8 -12 -177 86
-218 127 -80 79 -145 253 -145 389 0 54 9 49 35 -22z m1193 53 c15 -15 16 -68
2 -68 -10 0 -50 58 -50 73 0 11 35 8 48 -5z m168 -116 c-4 -3 -11 -1 -18 6 -8
8 -8 15 3 28 13 16 14 16 17 -5 2 -13 1 -25 -2 -29z m61 16 c-3 -7 -5 -2 -5
12 0 14 2 19 5 13 2 -7 2 -19 0 -25z m-1510 -40 c-3 -8 -6 -5 -6 6 -1 11 2 17
5 13 3 -3 4 -12 1 -19z m553 -19 c0 -6 -4 -7 -10 -4 -5 3 -10 11 -10 16 0 6 5
7 10 4 6 -3 10 -11 10 -16z m12 -475 c20 -4 39 -13 43 -22 3 -8 4 -16 3 -17
-2 -1 -33 -6 -70 -10 -53 -5 -68 -4 -68 7 0 7 -3 24 -7 37 -6 23 -4 24 28 17
19 -3 51 -9 71 -12z m446 -2 c9 -6 10 -20 3 -56 -5 -26 -11 -49 -14 -52 -6 -6
-148 33 -158 43 -4 5 -9 17 -11 27 -2 17 6 22 57 32 75 14 107 16 123 6z m708
-335 c4 -4 -1 -7 -12 -7 -18 0 -84 35 -84 44 0 5 87 -28 96 -37z m-936 3 c0
-5 -5 -10 -11 -10 -32 0 19 -45 237 -208 l240 -181 53 -203 c30 -112 67 -239
83 -283 16 -44 38 -106 49 -139 29 -84 101 -225 143 -276 20 -25 39 -49 44
-55 4 -5 25 -32 48 -60 22 -27 51 -65 63 -83 l23 -33 -22 -101 c-21 -100 -99
-277 -147 -336 l-19 -24 -42 56 c-23 31 -117 147 -210 259 -259 311 -403 496
-411 525 -12 43 -39 40 -46 -5 -12 -70 -57 -194 -68 -190 -44 14 -299 770
-296 877 1 41 221 453 250 467 29 15 39 16 39 3z m1150 -285 c41 -21 102 -55
137 -77 70 -44 78 -60 88 -178 5 -70 2 -85 -45 -240 -42 -138 -107 -328 -115
-338 -1 -1 -37 39 -79 89 -60 70 -77 96 -72 112 3 12 49 94 102 182 123 204
156 263 152 274 -2 4 -39 -48 -82 -118 -44 -69 -131 -204 -193 -299 -62 -95
-113 -178 -113 -185 0 -7 38 -62 85 -122 115 -148 119 -169 33 -194 -24 -7
-60 -22 -80 -32 l-37 -19 -39 49 -39 49 -7 152 c-4 84 -4 252 -1 374 7 210 6
224 -14 284 l-22 64 50 116 c27 65 52 127 55 139 l7 22 77 -33 c42 -18 111
-50 152 -71z m-1399 -22 c-11 -22 -66 -55 -75 -46 -18 18 -4 42 32 51 53 14
54 14 43 -5z m1822 -190 c8 -10 28 -46 43 -80 14 -35 33 -63 40 -63 8 0 14 -2
14 -5 0 -6 -119 -185 -123 -185 -1 0 -2 55 -2 123 -1 92 -5 131 -18 161 -13
29 -14 42 -6 52 15 19 33 18 52 -3z m367 -319 c34 -98 74 -203 90 -232 l28
-53 -170 -85 c-94 -47 -177 -83 -184 -80 -8 3 -14 13 -14 22 0 9 -12 42 -26
74 l-25 57 59 92 c47 73 61 87 65 71 3 -11 12 -20 20 -20 10 0 21 -28 36 -92
24 -103 41 -142 41 -94 0 15 -6 54 -14 85 -8 31 -20 100 -27 154 -11 88 -11
103 5 154 10 31 21 84 24 116 5 56 6 58 18 35 7 -13 40 -105 74 -204z m-816
-246 l79 -89 -33 -70 c-19 -38 -37 -69 -40 -69 -4 0 -12 10 -17 23 -6 12 -43
61 -82 109 -39 48 -71 92 -71 98 0 21 53 90 69 89 9 0 52 -41 95 -91z m511
-168 c15 -16 33 -28 38 -27 6 1 12 -5 14 -13 3 -14 -52 -50 -76 -50 -5 0 -11
27 -13 60 -1 33 0 60 3 60 3 0 18 -13 34 -30z m-71 -67 c-6 -49 -8 -51 -61
-77 l-55 -27 34 48 c19 26 45 63 57 81 13 18 25 32 27 29 2 -2 1 -26 -2 -54z
m586 -39 c-6 -32 -10 -86 -10 -118 0 -61 25 -206 42 -241 5 -11 -7 -3 -26 17
l-36 38 -123 -19 c-67 -11 -161 -23 -209 -27 l-86 -6 -27 40 c-15 23 -24 45
-21 50 3 6 36 25 74 43 37 18 70 35 73 37 10 5 29 -57 29 -94 0 -32 14 -53 24
-36 5 9 -6 88 -19 128 -6 18 2 27 47 55 67 43 68 43 68 27 0 -18 51 -121 57
-115 2 3 -5 31 -17 63 -11 32 -20 63 -20 69 0 6 33 35 74 64 41 29 83 62 92
72 9 11 19 18 20 16 2 -2 -1 -30 -6 -63z m-1093 -86 c-3 -7 -15 -37 -28 -66
l-22 -54 -15 29 c-8 15 -21 36 -30 46 -18 20 -19 19 33 39 50 20 69 22 62 6z
m514 -245 c-6 -23 -14 -29 -42 -31 -19 -2 -31 0 -27 3 6 7 71 53 75 55 1 0 -2
-12 -6 -27z m-1466 -39 c43 -28 61 -119 30 -160 -13 -18 -14 -16 -15 24 0 49
-21 97 -49 112 -53 28 -97 -7 -95 -76 1 -47 -9 -56 -26 -24 -18 34 11 127 44
141 26 11 82 2 111 -17z"/>
<path d="M3200 3556 c0 -2 7 -7 16 -10 8 -3 12 -2 9 4 -6 10 -25 14 -25 6z"/>
<path d="M2661 3004 c0 -11 3 -14 6 -6 3 7 2 16 -1 19 -3 4 -6 -2 -5 -13z"/>
<path d="M3181 2914 c0 -11 3 -14 6 -6 3 7 2 16 -1 19 -3 4 -6 -2 -5 -13z"/>
<path d="M4080 2820 c0 -5 5 -10 11 -10 5 0 7 5 4 10 -3 6 -8 10 -11 10 -2 0
-4 -4 -4 -10z"/>
<path d="M3194 2007 c21 -19 53 -42 70 -52 44 -25 31 -14 -44 40 -46 33 -54
36 -26 12z"/>
<path d="M3763 948 c-50 -73 -105 -153 -123 -178 l-32 -45 32 35 c39 43 227
320 218 320 -2 0 -45 -60 -95 -132z"/>
<path d="M3665 550 c-3 -6 1 -7 9 -4 18 7 21 14 7 14 -6 0 -13 -4 -16 -10z"/>
<path d="M377 391 c-19 -47 -22 -87 -7 -96 6 -3 10 -4 10 -1 0 3 9 27 19 55
17 40 18 52 7 66 -11 16 -14 14 -29 -24z"/>
<path d="M1186 401 c-4 -6 37 -120 51 -140 5 -8 33 22 33 36 0 8 -10 37 -21
64 -15 33 -27 49 -40 49 -10 0 -20 -4 -23 -9z"/>
<path d="M325 254 c-18 -42 -15 -50 13 -35 25 13 34 47 16 61 -10 9 -16 4 -29
-26z"/>
<path d="M1266 251 c-17 -19 -16 -25 20 -135 l38 -116 37 0 c30 0 38 4 43 23
10 38 7 217 -4 217 -5 0 -10 -26 -11 -57 -1 -32 -4 -85 -8 -118 l-6 -60 -43
133 c-24 72 -44 132 -46 132 -2 0 -11 -9 -20 -19z"/>
<path d="M1456 214 c-10 -25 52 -214 69 -214 19 0 20 -6 -17 121 -31 108 -40
124 -52 93z"/>
<path d="M302 177 c-6 -7 -24 -50 -41 -95 -30 -82 -30 -83 -9 -80 18 2 28 21
55 96 24 68 29 92 19 92 -7 0 -18 -6 -24 -13z"/>
</g>
</svg>
